<svg id="visual" viewBox="0 0 900 450" width="900" height="450" xmlns="http://www.w3.org/2000/svg" xmlns:xlink="http://www.w3.org/1999/xlink" version="1.1"><rect x="0" y="0" width="900" height="450" fill="#040F16"></rect><path d="M0 336L12.5 340.8C25 345.7 50 355.3 75 364C100 372.7 125 380.3 150 382.5C175 384.7 200 381.3 225 376.8C250 372.3 275 366.7 300 365C325 363.3 350 365.7 375 361.8C400 358 425 348 450 347.3C475 346.7 500 355.3 525 357.2C550 359 575 354 600 357.5C625 361 650 373 675 374C700 375 725 365 750 365.3C775 365.7 800 376.3 825 380.7C850 385 875 383 887.5 382L900 381L900 451L887.5 451C875 451 850 451 825 451C800 451 775 451 750 451C725 451 700 451 675 451C650 451 625 451 600 451C575 451 550 451 525 451C500 451 475 451 450 451C425 451 400 451 375 451C350 451 325 451 300 451C275 451 250 451 225 451C200 451 175 451 150 451C125 451 100 451 75 451C50 451 25 451 12.5 451L0 451Z" fill="#01baef"></path><path d="M0 405L12.5 400.7C25 396.3 50 387.7 75 388C100 388.3 125 397.7 150 399.2C175 400.7 200 394.3 225 389.7C250 385 275 382 300 384.7C325 387.3 350 395.7 375 400.5C400 405.3 425 406.7 450 407C475 407.3 500 406.7 525 404C550 401.3 575 396.7 600 396C625 395.3 650 398.7 675 396C700 393.3 725 384.7 750 381.5C775 378.3 800 380.7 825 379.2C850 377.7 875 372.3 887.5 369.7L900 367L900 451L887.5 451C875 451 850 451 825 451C800 451 775 451 750 451C725 451 700 451 675 451C650 451 625 451 600 451C575 451 550 451 525 451C500 451 475 451 450 451C425 451 400 451 375 451C350 451 325 451 300 451C275 451 250 451 225 451C200 451 175 451 150 451C125 451 100 451 75 451C50 451 25 451 12.5 451L0 451Z" fill="#b7d6fd"></path><path d="M0 433L12.5 429.5C25 426 50 419 75 417.3C100 415.7 125 419.3 150 417.5C175 415.7 200 408.3 225 407.8C250 407.3 275 413.7 300 417.8C325 422 350 424 375 419.8C400 415.7 425 405.3 450 401.8C475 398.3 500 401.7 525 408.2C550 414.7 575 424.3 600 423.2C625 422 650 410 675 408.5C700 407 725 416 750 417.2C775 418.3 800 411.7 825 410.7C850 409.7 875 414.3 887.5 416.7L900 419L900 451L887.5 451C875 451 850 451 825 451C800 451 775 451 750 451C725 451 700 451 675 451C650 451 625 451 600 451C575 451 550 451 525 451C500 451 475 451 450 451C425 451 400 451 375 451C350 451 325 451 300 451C275 451 250 451 225 451C200 451 175 451 150 451C125 451 100 451 75 451C50 451 25 451 12.5 451L0 451Z" fill="#fbfbff"></path></svg>